{"title":"Kasia_-Orange_Dildo","uid":5021016,"size":65474178,"categoryP":"porn","categoryS":"movie_clips","magnet":"?xt=urn:btih:24d39082faaa7677413c856ec4e19af58956047c&amp;dn=Kasia_-Orange_Dildo&amp;tr=udp%3A%2F%2Ftracker.openbittorrent.com%3A80&amp;tr=udp%3A%2F%2Fopen.demonii.com%3A1337&amp;tr=udp%3A%2F%2Ftracker.coppersurfer.tk%3A6969&amp;tr=udp%3A%2F%2Fexodus.desync.com%3A6969","seeders":1,"leechers":0,"uploader":"sandokan89","files":-1,"time":1248460902,"description":"--------------- Kasia_solo_ --------------\n\n\nVideo\nFormat                           : VP6 ----Flash Video\nDuration                         : 16mn 32s\nBit rate                         : 460 Kbps\nWidth                            : 640 pixels\nHeight                           : 480 pixels\nDisplay aspect ratio             : 4/3\nFrame rate                       : 30.000 fps\nBits/(Pixel*Frame)               : 0.050\nStream size                      : 56.1 MiB (90%)\n\nAudio\nFormat                           : MPEG Audio\nFormat version                   : Version 2\nFormat profile                   : Layer 3\nDuration                         : 16mn 32s\nBit rate mode                    : Constant\nBit rate                         : 48.0 Kbps\nChannel(s)                       : 1 channel\nSampling rate                    : 22.05 KHz\nResolution                       : 16 bits\nStream size                      : 6.12 MiB (10%)\nWriting library                  : LAME3.98.2\n\n","torrent":{"xt":"urn:btih:24d39082faaa7677413c856ec4e19af58956047c","amp;dn":"Kasia_-Orange_Dildo","amp;tr":["udp%3A%2F%2Ftracker.openbittorrent.com%3A80","udp%3A%2F%2Fopen.demonii.com%3A1337","udp%3A%2F%2Ftracker.coppersurfer.tk%3A6969","udp%3A%2F%2Fexodus.desync.com%3A6969"],"infoHash":"24d39082faaa7677413c856ec4e19af58956047c","infoHashBuffer":{"type":"Buffer","data":[36,211,144,130,250,170,118,119,65,60,133,110,196,225,154,245,137,86,4,124]},"announce":[],"urlList":[]}}